<svg width="127" height="127" viewBox="0 0 127 127" fill="none" xmlns="http://www.w3.org/2000/svg">
<path d="M79.72 90.34L90.85 38.56C91.82 34.05 86.73 29.75 82.41 31.41L33.11 50.33C28.02 52.28 29.63 59.9 35.4 61.12L55.47 65.37C57.64 65.83 59.53 67.41 60.37 69.46L68.69 89.89C70.89 95.28 78.61 95.6 79.74 90.34H79.72Z" fill="#B0C4DE"/>
<path d="M125.9 54.1C124.74 46.28 118.82 40.0101 111.08 38.4001C111.08 38.4001 108.81 37.9201 106.52 37.4401C104.23 36.9601 101.99 38.48 101.49 40.81C101.49 40.82 101.49 40.84 101.49 40.85L90.36 92.6301C88.79 99.9101 82.42 105 74.85 105C67.7 105 61.32 100.68 58.6 94.0001L51.1 75.5801L33.14 71.7701C25.55 70.1601 19.83 63.71 19.22 56.09C18.67 49.08 22.68 42.68 29.21 40.17L78.51 21.2501L78.56 21.2301C81.4 20.1501 82.8 16.9401 81.66 14.1301L80.3 10.7501C77.78 4.51005 71.82 0.310051 65.09 0.110051C49.6 -0.349949 33.88 4.85005 21.28 15.9901C-4.06001 38.3901 -7.21001 77.23 14.18 103.43C36.56 130.85 76.96 134.59 103.97 111.91C121.45 97.2401 129 75.13 125.9 54.1Z" fill="#B0C4DE"/>
</svg>
